# Blender v2.76 (sub 0) OBJ File: 'fader.blend'
# www.blender.org
mtllib fader.mtl
o Cube.001_Cube.002
v 1.243031 -18.446243 1.887524
v 1.243031 -12.907908 1.887524
v 1.243031 -18.446243 -1.887524
v 1.243031 -12.907908 -1.887524
v 2.624343 -18.446243 1.887524
v 2.609951 -12.907908 1.887524
v 2.624343 -18.446243 -1.887524
v 2.609951 -12.907908 -1.887524
v 2.869329 -13.411394 -1.887524
v 3.568498 -13.914879 -1.887524
v 3.163939 -14.418364 -1.887524
v 2.684666 -14.921849 -1.887524
v 2.608179 -15.425334 -1.887524
v 2.608179 -15.928819 -1.887524
v 2.624343 -16.432304 -1.887524
v 2.917740 -16.935789 -1.887524
v 3.760515 -17.439274 -1.887524
v 2.917740 -17.942759 -1.887524
v 2.869329 -13.411394 1.887524
v 3.568498 -13.914879 1.887524
v 3.163939 -14.418364 1.887524
v 2.684666 -14.921849 1.887524
v 2.608179 -15.425334 1.887524
v 2.608179 -15.928819 1.887524
v 2.624343 -16.432304 1.887524
v 2.917740 -16.935789 1.887524
v 3.760515 -17.439274 1.887524
v 2.917740 -17.942759 1.887524
v 2.800894 -18.068630 -1.887524
v 2.714948 -18.194502 -1.887524
v 2.657361 -18.320374 -1.887524
v 2.800894 -18.068630 1.887524
v 2.714948 -18.194502 1.887524
v 2.657361 -18.320374 1.887524
v 2.633565 -13.033780 -1.887524
v 2.684666 -13.159651 -1.887524
v 2.763254 -13.285522 -1.887524
v 3.002891 -13.537265 -1.887524
v 3.163939 -13.663136 -1.887524
v 3.352475 -13.789007 -1.887524
v 3.812007 -14.040751 -1.887524
v 3.568498 -14.166621 -1.887524
v 3.352475 -14.292493 -1.887524
v 3.002891 -14.544235 -1.887524
v 2.869329 -14.670106 -1.887524
v 2.763254 -14.795978 -1.887524
v 2.633565 -15.047720 -1.887524
v 2.609951 -15.173592 -1.887524
v 2.608179 -15.299462 -1.887524
v 2.608179 -15.551205 -1.887524
v 2.608179 -15.677076 -1.887524
v 2.608179 -15.802948 -1.887524
v 2.608179 -16.054689 -1.887524
v 2.608179 -16.180561 -1.887524
v 2.609307 -16.306433 -1.887524
v 2.657361 -16.558176 -1.887524
v 2.714948 -16.684046 -1.887524
v 2.800894 -16.809917 -1.887524
v 3.068468 -17.061661 -1.887524
v 3.256505 -17.187531 -1.887524
v 3.485739 -17.313402 -1.887524
v 3.485739 -17.565145 -1.887524
v 3.256505 -17.691017 -1.887524
v 3.068468 -17.816887 -1.887524
v 2.633565 -13.033780 1.887524
v 2.684666 -13.159651 1.887524
v 2.763254 -13.285522 1.887524
v 3.002891 -13.537265 1.887524
v 3.163939 -13.663136 1.887524
v 3.352475 -13.789007 1.887524
v 3.812007 -14.040751 1.887524
v 3.568498 -14.166621 1.887524
v 3.352475 -14.292493 1.887524
v 3.002891 -14.544235 1.887524
v 2.869329 -14.670106 1.887524
v 2.763254 -14.795978 1.887524
v 2.633565 -15.047720 1.887524
v 2.609951 -15.173592 1.887524
v 2.608179 -15.299462 1.887524
v 2.608179 -15.551205 1.887524
v 2.608179 -15.677076 1.887524
v 2.608179 -15.802948 1.887524
v 2.608179 -16.054689 1.887524
v 2.608179 -16.180561 1.887524
v 2.609307 -16.306433 1.887524
v 2.657361 -16.558176 1.887524
v 2.714948 -16.684046 1.887524
v 2.800894 -16.809917 1.887524
v 3.068468 -17.061661 1.887524
v 3.256505 -17.187531 1.887524
v 3.485739 -17.313402 1.887524
v 3.485739 -17.565145 1.887524
v 3.256505 -17.691017 1.887524
v 3.068468 -17.816887 1.887524
vn -1.000000 0.000000 0.000000
vn 0.000000 0.000000 -1.000000
vn 0.967300 -0.253700 0.000000
vn -0.000000 0.000000 1.000000
vn 0.000000 -1.000000 0.000000
vn 0.000000 1.000000 0.000000
vn 0.764700 0.644400 0.000000
vn 0.503400 0.864000 0.000000
vn 0.555200 -0.831700 0.000000
vn 0.848200 -0.529600 0.000000
vn 1.000000 0.000000 0.000000
vn 0.992900 0.118600 0.000000
vn 0.732900 0.680300 0.000000
vn 0.416500 0.909100 0.000000
vn 0.641000 -0.767600 0.000000
vn 0.416500 -0.909100 0.000000
vn 0.481300 -0.876500 0.000000
vn 0.556300 -0.831000 0.000000
vn 0.641000 0.767600 0.000000
vn 0.556300 0.831000 0.000000
vn 0.481300 0.876500 0.000000
vn 0.967300 0.253700 0.000000
vn 0.909300 0.416000 0.000000
vn 0.825800 0.563900 0.000000
vn 1.000000 0.009000 0.000000
vn 0.926600 -0.376200 0.000000
vn 0.982900 -0.184400 0.000000
vn 0.999900 -0.014100 0.000000
vn 0.615800 -0.787900 0.000000
vn 0.685800 -0.727700 0.000000
vn 0.764700 -0.644400 0.000000
vn 0.459200 0.888300 0.000000
vn 0.459200 -0.888300 0.000000
vn 0.503400 -0.864000 0.000000
vn 0.685800 0.727700 0.000000
vn 0.615800 0.787900 0.000000
vn 0.555300 0.831700 0.000000
vn 0.982900 0.184400 0.000000
vn 0.926600 0.376200 0.000000
vn 0.848200 0.529600 0.000000
vn 0.732900 -0.680300 0.000000
vn 0.825800 -0.563900 0.000000
vn 0.909300 -0.416000 0.000000
vn 0.555300 -0.831700 0.000000
vn 0.555200 0.831700 0.000000
usemtl Material.001
s off
f 4//1 3//1 1//1
f 56//2 7//2 15//2
f 34//3 5//3 7//3
f 87//4 86//4 33//4
f 3//5 7//5 5//5
f 8//6 4//6 2//6
f 67//7 19//7 9//7
f 70//8 20//8 10//8
f 73//9 21//9 11//9
f 76//10 22//10 12//10
f 79//11 23//11 13//11
f 82//11 24//11 14//11
f 85//12 25//12 15//12
f 88//13 26//13 16//13
f 91//14 27//14 17//14
f 94//15 28//15 18//15
f 27//16 92//16 62//16
f 92//17 93//17 63//17
f 93//18 94//18 64//18
f 26//19 89//19 59//19
f 89//20 90//20 60//20
f 90//21 91//21 61//21
f 25//22 86//22 56//22
f 86//23 87//23 57//23
f 87//24 88//24 58//24
f 24//11 83//11 53//11
f 83//11 84//11 54//11
f 84//25 85//25 55//25
f 23//11 80//11 50//11
f 80//11 81//11 51//11
f 81//11 82//11 52//11
f 22//26 77//26 47//26
f 77//27 78//27 48//27
f 78//28 79//28 49//28
f 21//29 74//29 44//29
f 74//30 75//30 45//30
f 75//31 76//31 46//31
f 20//32 71//32 41//32
f 71//33 72//33 42//33
f 72//34 73//34 43//34
f 19//35 68//35 38//35
f 68//36 69//36 39//36
f 69//37 70//37 40//37
f 6//38 65//38 35//38
f 65//39 66//39 36//39
f 66//40 67//40 37//40
f 28//41 32//41 29//41
f 32//42 33//42 30//42
f 33//43 34//43 31//43
f 2//1 4//1 1//1
f 3//2 51//2 52//2
f 10//2 41//2 42//2
f 4//2 8//2 35//2
f 40//2 10//2 42//2
f 4//2 47//2 48//2
f 39//2 40//2 43//2
f 35//2 47//2 4//2
f 38//2 39//2 11//2
f 36//2 47//2 35//2
f 9//2 38//2 44//2
f 49//2 13//2 4//2
f 40//2 42//2 43//2
f 13//2 50//2 4//2
f 39//2 43//2 11//2
f 50//2 51//2 4//2
f 38//2 11//2 44//2
f 51//2 3//2 4//2
f 9//2 44//2 45//2
f 14//2 53//2 3//2
f 9//2 45//2 46//2
f 52//2 14//2 3//2
f 9//2 46//2 37//2
f 61//2 17//2 62//2
f 46//2 12//2 37//2
f 60//2 61//2 62//2
f 12//2 36//2 37//2
f 59//2 60//2 63//2
f 12//2 47//2 36//2
f 16//2 59//2 64//2
f 4//2 48//2 49//2
f 58//2 16//2 18//2
f 3//2 53//2 54//2
f 60//2 62//2 63//2
f 3//2 54//2 55//2
f 57//2 58//2 29//2
f 3//2 55//2 15//2
f 59//2 63//2 64//2
f 3//2 15//2 7//2
f 56//2 57//2 30//2
f 31//2 7//2 56//2
f 16//2 64//2 18//2
f 30//2 31//2 56//2
f 58//2 18//2 29//2
f 29//2 30//2 57//2
f 31//3 34//3 7//3
f 65//4 6//4 2//4
f 2//4 1//4 81//4
f 92//4 27//4 91//4
f 1//4 5//4 25//4
f 93//4 92//4 91//4
f 5//4 34//4 25//4
f 94//4 93//4 90//4
f 34//4 86//4 25//4
f 28//4 94//4 89//4
f 33//4 86//4 34//4
f 66//4 65//4 77//4
f 72//4 71//4 20//4
f 67//4 66//4 22//4
f 72//4 20//4 70//4
f 19//4 67//4 76//4
f 72//4 70//4 73//4
f 68//4 19//4 75//4
f 70//4 69//4 73//4
f 80//4 23//4 2//4
f 73//4 69//4 21//4
f 82//4 81//4 1//4
f 21//4 69//4 68//4
f 81//4 80//4 2//4
f 74//4 21//4 68//4
f 24//4 82//4 1//4
f 75//4 74//4 68//4
f 83//4 24//4 1//4
f 76//4 75//4 19//4
f 84//4 83//4 1//4
f 22//4 76//4 67//4
f 93//4 91//4 90//4
f 77//4 22//4 66//4
f 94//4 90//4 89//4
f 77//4 65//4 2//4
f 28//4 89//4 26//4
f 78//4 77//4 2//4
f 28//4 26//4 88//4
f 79//4 78//4 2//4
f 28//4 88//4 32//4
f 23//4 79//4 2//4
f 88//4 87//4 32//4
f 85//4 84//4 1//4
f 87//4 33//4 32//4
f 25//4 85//4 1//4
f 1//5 3//5 5//5
f 6//6 8//6 2//6
f 37//7 67//7 9//7
f 40//8 70//8 10//8
f 43//44 73//44 11//44
f 46//10 76//10 12//10
f 49//11 79//11 13//11
f 52//11 82//11 14//11
f 55//12 85//12 15//12
f 58//13 88//13 16//13
f 61//14 91//14 17//14
f 64//15 94//15 18//15
f 17//16 27//16 62//16
f 62//17 92//17 63//17
f 63//18 93//18 64//18
f 16//19 26//19 59//19
f 59//20 89//20 60//20
f 60//21 90//21 61//21
f 15//22 25//22 56//22
f 56//23 86//23 57//23
f 57//24 87//24 58//24
f 14//11 24//11 53//11
f 53//11 83//11 54//11
f 54//25 84//25 55//25
f 13//11 23//11 50//11
f 50//11 80//11 51//11
f 51//11 81//11 52//11
f 12//26 22//26 47//26
f 47//27 77//27 48//27
f 48//28 78//28 49//28
f 11//29 21//29 44//29
f 44//30 74//30 45//30
f 45//31 75//31 46//31
f 10//32 20//32 41//32
f 41//33 71//33 42//33
f 42//34 72//34 43//34
f 9//35 19//35 38//35
f 38//36 68//36 39//36
f 39//45 69//45 40//45
f 8//38 6//38 35//38
f 35//39 65//39 36//39
f 36//40 66//40 37//40
f 18//41 28//41 29//41
f 29//42 32//42 30//42
f 30//43 33//43 31//43
o Cube
v -1.000000 17.258518 0.297818
v -1.000000 -17.258518 0.297818
v -1.000000 -22.446430 4.978682
v -1.000000 22.446430 4.978682
v -1.000000 22.446430 -4.978682
v -1.000000 17.258518 -0.297818
v -1.000000 -17.258518 -0.297818
v -1.000000 -22.446430 -4.978682
v 1.000000 -22.446430 -4.978682
v 1.000000 22.446430 -4.978682
v 1.000000 -22.446430 4.978682
v 1.000000 22.446430 4.978682
v 1.000000 -17.258518 0.297818
v 1.000000 17.258518 -0.297818
v 1.000000 -17.258518 -0.297818
v 1.000000 17.258518 0.297818
vt 0.475899 0.890471
vt 0.007933 1.005375
vt 1.003414 1.005375
vt 0.535447 0.125969
vt 1.003414 0.011064
vt 0.007933 0.011064
vt 0.535447 0.890471
vt 0.475899 0.125969
vn -1.000000 0.000000 0.000000
vn 0.000000 0.000000 -1.000000
vn 0.000000 -1.000000 0.000000
vn 0.000000 0.000000 1.000000
vn 0.000000 1.000000 0.000000
vn 1.000000 0.000000 0.000000
usemtl Material.003
s off
f 95/1/46 98/2/46 99/3/46
f 101/4/46 99/3/46 102/5/46
f 102/5/47 99/3/47 104/3/47
f 105/6/48 97/6/48 102/5/48
f 105/6/49 106/2/49 98/2/49
f 98/2/50 106/2/50 104/3/50
f 103/5/51 108/7/51 109/4/51
f 110/1/51 106/2/51 105/6/51
f 101/4/49 109/4/49 108/7/49
f 110/1/48 95/1/48 100/7/48
f 96/8/50 107/8/50 109/4/50
f 107/8/47 96/8/47 95/1/47
f 95/1/46 96/8/46 97/6/46
f 99/3/46 100/7/46 95/1/46
f 95/1/46 97/6/46 98/2/46
f 97/6/46 96/8/46 101/4/46
f 101/4/46 100/7/46 99/3/46
f 102/5/46 97/6/46 101/4/46
f 103/5/47 102/5/47 104/3/47
f 103/5/48 105/6/48 102/5/48
f 97/6/49 105/6/49 98/2/49
f 99/3/50 98/2/50 104/3/50
f 109/4/51 107/8/51 105/6/51
f 103/5/51 104/3/51 108/7/51
f 109/4/51 105/6/51 103/5/51
f 110/1/51 108/7/51 104/3/51
f 105/6/51 107/8/51 110/1/51
f 110/1/51 104/3/51 106/2/51
f 100/7/49 101/4/49 108/7/49
f 108/7/48 110/1/48 100/7/48
f 101/4/50 96/8/50 109/4/50
f 110/1/47 107/8/47 95/1/47
